<svg width="45" height="45" viewBox="0 0 45 45" fill="none" xmlns="http://www.w3.org/2000/svg">
<g id="icon / jam-icons / outline &#38; logos / plus">
<path id="Vector" d="M25.125 21.375V12C25.125 11.5027 24.9275 11.0258 24.5758 10.6742C24.2242 10.3225 23.7473 10.125 23.25 10.125C22.7527 10.125 22.2758 10.3225 21.9242 10.6742C21.5725 11.0258 21.375 11.5027 21.375 12V21.375H12C11.5027 21.375 11.0258 21.5725 10.6742 21.9242C10.3225 22.2758 10.125 22.7527 10.125 23.25C10.125 23.7473 10.3225 24.2242 10.6742 24.5758C11.0258 24.9275 11.5027 25.125 12 25.125H21.375V34.5C21.375 34.9973 21.5725 35.4742 21.9242 35.8258C22.2758 36.1775 22.7527 36.375 23.25 36.375C23.7473 36.375 24.2242 36.1775 24.5758 35.8258C24.9275 35.4742 25.125 34.9973 25.125 34.5V25.125H34.5C34.9973 25.125 35.4742 24.9275 35.8258 24.5758C36.1775 24.2242 36.375 23.7473 36.375 23.25C36.375 22.7527 36.1775 22.2758 35.8258 21.9242C35.4742 21.5725 34.9973 21.375 34.5 21.375H25.125Z" fill="#005509"/>
</g>
</svg>
